<svg xmlns="http://www.w3.org/2000/svg" viewBox="0 0 72 48" fill="none">
  <!-- sun rays -->
  <g stroke="#FCD34D" stroke-width="2" stroke-linecap="round">
    <line x1="18" y1="4"  x2="18" y2="9"/>
    <line x1="3"  y1="19" x2="8"  y2="19"/>
    <line x1="7"  y1="8"  x2="10" y2="11"/>
    <line x1="29" y1="8"  x2="26" y2="11"/>
    <line x1="7"  y1="30" x2="10" y2="27"/>
  </g>
  <!-- sun disc -->
  <circle cx="18" cy="19" r="9" fill="#FDE68A" stroke="#FCD34D" stroke-width="1.5"/>
  <!-- cloud overlapping sun -->
  <path d="M54 36c6 0 10-4 10-9s-4-9-10-9c-1 0-3 0-4 1-2-5-7-8-12-8-7 0-12 5-12 12 0 1 0 2 0 2-5 0-9 4-9 8s4 8 9 8h28z"
        fill="#F0F9FF"/>
  <path d="M54 36c6 0 10-4 10-9s-4-9-10-9c-1 0-3 0-4 1-2-5-7-8-12-8-7 0-12 5-12 12 0 1 0 2 0 2-5 0-9 4-9 8s4 8 9 8h28z"
        fill="none" stroke="#7DD3FC" stroke-width="1.5"/>
</svg>
